<?xml version="1.0" encoding="UTF-8" standalone="no"?>
<svg
   xmlns:dc="http://purl.org/dc/elements/1.1/"
   xmlns:cc="http://creativecommons.org/ns#"
   xmlns:rdf="http://www.w3.org/1999/02/22-rdf-syntax-ns#"
   xmlns:svg="http://www.w3.org/2000/svg"
   xmlns="http://www.w3.org/2000/svg"
   viewBox="0 0 1333.3333 1088.1067"
   height="1088.1067"
   width="1333.3333"
   xml:space="preserve"
   id="svg2"
   version="1.1"><metadata
     id="metadata8"><rdf:RDF><cc:Work
         rdf:about=""><dc:format>image/svg+xml</dc:format><dc:type
           rdf:resource="http://purl.org/dc/dcmitype/StillImage" /></cc:Work></rdf:RDF></metadata><defs
     id="defs6"><clipPath
       id="clipPath20"
       clipPathUnits="userSpaceOnUse"><path
         id="path18"
         d="M 0,8160.82 V 0 h 10000 v 8160.82 z" /></clipPath></defs><g
     transform="matrix(1.3333333,0,0,-1.3333333,0,1088.1067)"
     id="g10"><g
       transform="scale(0.1)"
       id="g12"><g
         id="g14"><g
           clip-path="url(#clipPath20)"
           id="g16"><path
             id="path22"
             style="fill:#03a0ab;fill-opacity:1;fill-rule:nonzero;stroke:none"
             d="M 0,0.0117188 H 10000 V 8160.8217 H 0 Z" /><path
             id="path24"
             style="fill:#e6ae73;fill-opacity:1;fill-rule:nonzero;stroke:none"
             d="m 3482.5,2776.15 1125.66,-729.52 c 0,0 440.24,15.51 440.02,198.87 -0.19,183.37 -1240.81,1289.51 -1565.68,530.65" /><path
             id="path26"
             style="fill:#e6ae73;fill-opacity:1;fill-rule:nonzero;stroke:none"
             d="m 4575.36,1818.73 c 0,0 268.68,-47.53 489.66,164.07 220.98,211.62 -237.21,202.96 -237.21,202.96 l -252.45,-367.03" /><path
             id="path28"
             style="fill:#ffd2a2;fill-opacity:1;fill-rule:nonzero;stroke:none"
             d="m 3217.09,3246.87 c 0,0 -100.75,-161.8 -77.5,-281.82 23.24,-120.02 70.15,-187.23 128.68,-223.88 58.52,-36.66 134.54,-88.97 247.58,-29.55 113.05,59.41 175.35,255.62 175.35,255.62 l -474.11,279.63" /><path
             id="path30"
             style="fill:#ffecd9;fill-opacity:1;fill-rule:nonzero;stroke:none"
             d="m 3175.19,2922.15 c 0,0 41.13,-232.75 286.72,-211.38 l -286.72,211.38" /><path
             id="path32"
             style="fill:#f7c590;fill-opacity:1;fill-rule:nonzero;stroke:none"
             d="m 6938.17,3129.81 -0.07,-0.01 c -9.24,-33.77 -25.45,-68.63 -50.21,-104.28 -171.24,-246.07 -414.09,-97.33 -431.9,-86.02 14.69,-10.62 222.43,-170.39 20.13,-382.02 -206.14,-215.67 -409.51,-91.72 -409.51,-91.72 0,0 15.24,-81.88 -130.12,-206.75 -173.06,-148.7 -341.14,-18.83 -341.14,-18.83 0.69,-42.69 -8.69,-79.54 -25.35,-110.56 -60.94,-114.11 -218.54,-149.13 -323.84,-100.63 -16.34,7.54 -47.7,24.78 -90.43,49.3 -307.43,176.38 -1201.74,731.32 -1298.85,779.97 -110.48,55.29 -1217.96,646.7 -1217.96,646.7 l 30.14,133.85 54.69,242.86 272.88,1211.05 c 0,0 818.92,-233.04 973.26,-247.54 154.34,-14.49 672.82,212.91 833.01,288.05 130.39,61.17 292.71,113.93 390.49,78.9 39.25,-14.05 125.67,-44.85 234.5,-97.48 92.25,-44.64 202.2,-96.11 319.29,-135.52 53.39,-17.94 90.52,-43.64 116.46,-73.97 89.58,-104.69 47.27,-265.06 88.11,-358.09 52.64,-119.9 -707.63,22.97 -707.63,22.97 0,0 99.95,-67.38 247.81,-167.29 4.83,-3.2 9.65,-6.48 14.56,-9.76 2.63,-1.74 5.33,-3.56 8.04,-5.46 406.31,-274.49 1134.04,-767.37 1197.51,-818.97 38.7,-31.51 111.48,-90.63 165.91,-168.57 h 0.08 c 52.46,-75.21 88.06,-167.83 60.14,-270.18" /><path
             id="path34"
             style="fill:#e9af78;fill-opacity:1;fill-rule:nonzero;stroke:none"
             d="m 5155.73,2078.29 c -10.13,5.82 -20.9,12.04 -32.26,18.65 -36.43,21.18 -78.93,46.28 -125.82,74.22 -11.53,6.87 -23.3,13.9 -35.34,21.1 6.86,58.63 -12.71,117.28 -57.99,155.68 l -43.83,37.14 c -31.26,26.47 -70.06,39.26 -109.73,39.26 -16.89,0 -33.94,-2.32 -50.64,-6.88 -11.19,-3.07 -22.23,-7.15 -32.95,-12.22 32.84,83.46 17.95,178.08 -45.67,238.58 l -50.23,47.75 c -38.98,36.99 -89.78,55.13 -142.07,55.13 -40.68,0 -82.26,-10.99 -119.84,-32.62 -20.93,-11.95 -40.57,-27.23 -58.15,-45.77 l -27.07,-28.48 c -8.27,5.03 -16.44,9.99 -24.56,14.91 22.37,81.75 0.34,173.13 -65.08,235.31 l -55.18,52.44 c -45.73,43.47 -104.63,65.04 -163.44,65.04 -62.88,0 -125.66,-24.66 -172.12,-73.56 l -10.62,-11.16 c -15.19,8 -31.39,16.56 -48.55,25.63 -129.98,68.7 -312.6,165.77 -488.93,259.66 -205.67,109.51 -402.82,214.71 -497.79,265.39 l 45.88,152.73 237.04,789.28 62.65,-759 692.19,-667.72 c 0,0 65.52,55.3 166.66,55.3 56.46,0 124.01,-17.23 197.47,-70.91 205.16,-149.86 153.44,-242.57 153.44,-242.57 0,0 113.14,61.43 228.4,61.43 56.9,0 114.31,-14.96 158.9,-59.68 135,-135.36 115.7,-259.93 115.7,-259.93 0,0 10.88,2.52 29.01,2.52 36.24,0 101.49,-10.09 166.84,-70.69 63.97,-59.37 112.33,-194.71 203.68,-325.96" /><path
             id="path36"
             style="fill:#038e8e;fill-opacity:1;fill-rule:nonzero;stroke:none"
             d="m 5507.84,4392.1 c -0.45,0.3 -0.9,0.6 -1.35,0.89 -3.1,2.08 -6.18,4.15 -9.24,6.21 3.08,-2.04 6.15,-4.09 9.25,-6.18 0.45,-0.31 0.89,-0.62 1.34,-0.92" /><path
             id="path38"
             style="fill:#e9af78;fill-opacity:1;fill-rule:nonzero;stroke:none"
             d="m 4659.47,4174.06 c -113.06,-0.01 -219.2,57.12 -244.17,112.61 -6.92,15.5 -9.07,37.32 -7.77,63.33 1.29,-5.95 2.98,-11.41 5.17,-16.18 24.19,-53.71 109.91,-104.91 206.27,-104.91 73.36,0 152.89,29.68 216.13,110.51 146.3,187.1 186.9,264 186.9,264 0,0 2.64,0.31 8.03,0.31 34.27,0 179.69,-12.78 461.87,-201.01 1.8,-1.17 3.58,-2.35 5.35,-3.52 3.06,-2.06 6.14,-4.13 9.24,-6.21 0.45,-0.29 0.9,-0.59 1.35,-0.89 2.18,-1.5 4.42,-3 6.66,-4.58 1.65,-1.12 3.3,-2.25 4.98,-3.4 -256.13,59.93 -504.01,41.81 -521.59,50.25 -4.69,-9.25 -28.04,-43.25 -115.06,-154.53 -60.52,-77.38 -143.66,-105.77 -223.36,-105.78" /><path
             id="path40"
             style="fill:#ffd2a2;fill-opacity:1;fill-rule:nonzero;stroke:none"
             d="m 7766.6,3665.82 c 0,0 -54.2,-18.5 -136.01,-45.6 -234.59,-78 -672.59,-224.41 -736.39,-244.9 l -16.3,24.7 c -23.8,3.2 -134.6,79.7 -285.7,190.3 -326.8,239 -842.6,637.1 -1077.7,797.2 -2.7,1.9 -5.4,3.69 -8,5.5 -4.9,3.3 -9.7,6.5 -14.6,9.7 -326.5,217.8 -469.9,200.7 -469.9,200.7 0,0 -40.6,-76.9 -186.9,-264 -146.3,-187 -379.8,-100.21 -422.4,-5.6 -2.2,4.8 -3.9,10.3 -5.2,16.3 -23.5,111.7 65.3,394.4 81.7,466.3 33.5,148.4 211.7,259.7 317,255.9 105.3,-3.7 285.3,27.2 418.4,49.6 64,10.7 134,6.2 203.3,-7.3 74.7,-14.5 148.6,-39.4 213.2,-66.8 124.4,-52.8 686.1,-305.2 760.4,-301.1 74.4,4.1 666.1,230.6 666.1,230.6 l 542.1,-1017.1 156.9,-294.4" /><path
             id="path42"
             style="fill:#f1ba86;fill-opacity:1;fill-rule:nonzero;stroke:none"
             d="m 6894.2,3375.32 -0.08,0.11 -16.22,24.59 c -23.8,3.2 -134.6,79.7 -285.7,190.3 l 662.44,240.82 107.26,-300.42 c -207.85,-69.29 -424.31,-141.46 -467.7,-155.4" /><path
             id="path44"
             style="fill:#ffd2a2;fill-opacity:1;fill-rule:nonzero;stroke:none"
             d="m 3935.36,2335.96 c -89.94,-94.62 -240.96,-98.47 -335.59,-8.51 l -55.17,52.42 c -94.63,89.94 -98.49,240.95 -8.54,335.56 l 207.7,218.54 c 89.91,94.63 240.93,98.48 335.56,8.52 l 55.18,-52.44 c 94.62,-89.94 98.46,-240.93 8.53,-335.56 l -207.67,-218.53" /><path
             id="path46"
             style="fill:#ffd2a2;fill-opacity:1;fill-rule:nonzero;stroke:none"
             d="m 4913.8,2081.82 -161.69,-190.83 c -70.07,-82.69 -188.87,-98.14 -264.11,-34.44 l -43.82,37.22 c -12.33,10.44 -22.76,22.32 -31.2,35.41 v 0.07 c -43.4,66.5 -36.82,161.52 21.8,230.57 l 161.68,190.84 c 28.48,33.73 65.15,56.24 103.66,66.8 55.91,15.3 115.81,5.36 160.37,-32.38 l 43.83,-37.14 c 75.24,-63.8 79.48,-183.52 9.48,-266.12" /><path
             id="path48"
             style="fill:#ffecd9;fill-opacity:1;fill-rule:nonzero;stroke:none"
             d="m 4612.47,2283.82 c -29.63,2.13 -79.77,-117.6 -2.54,-165.84 57.9,-36.19 124.37,6.56 154,30.17 9.86,7.88 12.05,18.88 5.55,27.21 -24.04,30.74 -87.86,103.49 -157.01,108.46" /><path
             id="path50"
             style="fill:#f1ba86;fill-opacity:1;fill-rule:nonzero;stroke:none"
             d="m 4412.98,1929.25 v 0 c -18.65,28.58 -28.07,62.41 -28.1,97.2 -0.02,22.67 3.95,45.73 11.96,68.01 3.4,3.22 6.74,6.55 10.01,9.99 l 161.16,169.56 c -78.36,-98.3 -153.72,-223.95 -155.03,-344.76 m 232.85,433.89 c 8.54,13.55 15.65,27.65 21.34,42.1 10.72,5.07 21.76,9.15 32.95,12.22 -15.39,-14.63 -34.01,-32.96 -54.29,-54.32" /><path
             id="path52"
             style="fill:#ffd2a2;fill-opacity:1;fill-rule:nonzero;stroke:none"
             d="m 4614.54,2322.96 -207.69,-218.51 c -89.91,-94.66 -233.96,-105.14 -320.05,-23.26 l -50.25,47.75 c -31.78,30.24 -51.41,69.03 -58.99,110.71 -12.99,71.08 9.26,150.5 65.96,210.14 l 207.69,218.52 c 17.58,18.54 37.22,33.82 58.15,45.77 85.87,49.43 192.62,43.26 261.91,-22.51 l 50.23,-47.75 c 86.1,-81.87 82.95,-226.21 -6.96,-320.86" /><path
             id="path54"
             style="fill:#ffecd9;fill-opacity:1;fill-rule:nonzero;stroke:none"
             d="m 3825.75,2884.95 c -51.43,7 -136.89,-236.9 -1.8,-335.8 135.07,-98.9 294.38,86.03 294.38,86.03 0,0 2.51,209.54 -292.58,249.77" /><path
             id="path56"
             style="fill:#ffecd9;fill-opacity:1;fill-rule:nonzero;stroke:none"
             d="m 4286.05,2626.76 c -45.6,6.83 -120.46,-224.47 -0.42,-318.86 120.03,-94.39 210.1,15.48 260.52,80.67 15.08,19.47 1.5,198.94 -260.1,238.19" /><path
             id="path58"
             style="fill:#ffecd9;fill-opacity:1;fill-rule:nonzero;stroke:none"
             d="m 4445.29,4566.83 c -16.06,-40.51 -40.39,-163.82 -40.77,-197.07 -0.37,-33.25 189.52,-87.53 253.96,-50.74 64.44,36.8 71.44,113.43 85.58,178.47 14.15,65.03 -78.46,152.29 -164.85,151.96 -86.39,-0.32 -119.7,-46.72 -133.92,-82.62" /><path
             id="path60"
             style="fill:#f1ba86;fill-opacity:1;fill-rule:nonzero;stroke:none"
             d="m 3977.56,2239.65 v 0 c -2.41,13.19 -3.61,26.67 -3.6,40.25 0.06,59.62 23.38,121.32 69.56,169.89 l 207.69,218.52 c 17.58,18.54 37.22,33.82 58.15,45.77 -61.49,-73.94 -269.67,-329.28 -331.8,-474.43" /><path
             id="path62"
             style="fill:#c48950;fill-opacity:1;fill-rule:nonzero;stroke:none"
             d="m 5595.35,2240.18 c 0,0 -253.75,281.21 -309.63,328.54 0,0 194.43,-263.4 309.63,-328.54" /><path
             id="path64"
             style="fill:#c48950;fill-opacity:1;fill-rule:nonzero;stroke:none"
             d="m 6066.61,2465.76 -360.86,325.37 c 0,0 156.3,-190.61 360.86,-325.37" /><path
             id="path66"
             style="fill:#c48950;fill-opacity:1;fill-rule:nonzero;stroke:none"
             d="m 6455.99,2939.5 -387.51,305.85 c 0,0 235.57,-240.28 387.51,-305.85" /><path
             id="path68"
             style="fill:#e0ac67;fill-opacity:1;fill-rule:nonzero;stroke:none"
             d="m 6878.03,3399.99 h -0.08 c -75.37,10.25 -1019.63,753.33 -1363.42,987.54 -2.71,1.9 -5.41,3.72 -8.04,5.46 -4.91,3.28 -9.73,6.56 -14.56,9.76 0,0 416.69,-196.75 722.26,-439.19 305.54,-242.45 628.92,-505.04 663.84,-563.57" /><path
             id="path70"
             style="fill:#ffffff;fill-opacity:1;fill-rule:nonzero;stroke:none"
             d="m 3191.6,5117.43 -447.85,-1491.21 -94.21,-313.62 -673.31,263.54 128.03,389.49 448.64,1365.38 638.7,-213.58" /><path
             id="path72"
             style="fill:#cfcfcf;fill-opacity:1;fill-rule:nonzero;stroke:none"
             d="m 2743.75,3626.22 -94.21,-313.62 -673.31,263.54 100.2,304.82 667.32,-254.74" /><path
             id="path74"
             style="fill:#111421;fill-opacity:1;fill-rule:nonzero;stroke:none"
             d="m 2615.9,5309.92 -57.9,-174.2 -6.3,-18.9 -48.9,-147.2 -6.3,-18.9 -48.9,-147.2 -6.2,-18.9 -48.9,-147.2 -6.3,-18.9 -48.9,-147.2 -6.3,-18.9 -48.9,-147.2 -6.3,-18.9 -48.9,-147.2 -6.3,-18.9 -48.9,-147.2 -6.3,-18.9 -48.9,-147.2 -6.3,-18.9 -44.7,-134.6 -4.2,-12.61 -6.3,-18.99 -48.9,-147.1 -6.3,-19 -60.6,-182.3 L 0,4001.22 v 2254.6 l 2615.9,-945.9" /><path
             id="path76"
             style="fill:#ffffff;fill-opacity:1;fill-rule:nonzero;stroke:none"
             d="m 6851.29,4960.95 510.61,-1430.23 123.02,-344.5 658.95,297.6 -147.78,382.43 -517.85,1340.65 -626.95,-245.95" /><path
             id="path78"
             style="fill:#cfcfcf;fill-opacity:1;fill-rule:nonzero;stroke:none"
             d="m 7361.9,3530.72 123.02,-344.5 658.95,297.6 -115.65,299.29 -666.32,-252.39" /><path
             id="path80"
             style="fill:#232a45;fill-opacity:1;fill-rule:nonzero;stroke:none"
             d="m 10000,6269.32 v -2301.7 l -1803.6,-784.3 -214.2,411 -783.2,1503 2801,1172" /><path
             id="path82"
             style="fill:#292e42;fill-opacity:1;fill-rule:nonzero;stroke:none"
             d="m 2558,5135.72 -6.3,-18.9 L 0,6055.32 v 21.3 l 2558,-940.9" /><path
             id="path84"
             style="fill:#292e42;fill-opacity:1;fill-rule:nonzero;stroke:none"
             d="m 2502.8,4969.62 -6.3,-18.9 L 0,5868.92 v 21.3 l 2502.8,-920.6" /><path
             id="path86"
             style="fill:#292e42;fill-opacity:1;fill-rule:nonzero;stroke:none"
             d="m 2447.6,4803.52 -6.2,-18.9 L 0,5682.52 v 21.3 l 2447.6,-900.3" /><path
             id="path88"
             style="fill:#292e42;fill-opacity:1;fill-rule:nonzero;stroke:none"
             d="m 2392.5,4637.42 -6.3,-18.9 L 0,5496.12 v 21.3 l 2392.5,-880" /><path
             id="path90"
             style="fill:#292e42;fill-opacity:1;fill-rule:nonzero;stroke:none"
             d="m 2337.3,4471.32 -6.3,-18.9 -2331,857.3 v 21.3 l 2337.3,-859.7" /><path
             id="path92"
             style="fill:#292e42;fill-opacity:1;fill-rule:nonzero;stroke:none"
             d="m 2282.1,4305.22 -6.3,-18.9 -2275.8,837 v 21.3 l 2282.1,-839.4" /><path
             id="path94"
             style="fill:#292e42;fill-opacity:1;fill-rule:nonzero;stroke:none"
             d="m 2226.9,4139.12 -6.3,-18.9 L 0,4936.92 v 21.3 l 2226.9,-819.1" /><path
             id="path96"
             style="fill:#292e42;fill-opacity:1;fill-rule:nonzero;stroke:none"
             d="m 2171.7,3973.02 -6.3,-18.9 L 0,4750.52 v 21.3 l 2171.7,-798.8" /><path
             id="path98"
             style="fill:#292e42;fill-opacity:1;fill-rule:nonzero;stroke:none"
             d="m 2116.5,3806.92 -6.3,-18.9 L 0,4564.12 v 21.3 l 2116.5,-778.5" /><path
             id="path100"
             style="fill:#292e42;fill-opacity:1;fill-rule:nonzero;stroke:none"
             d="M 2061.3,3640.81 2055,3621.82 0,4377.72 v 21.3 l 2061.3,-758.21" /><path
             id="path102"
             style="fill:#292e42;fill-opacity:1;fill-rule:nonzero;stroke:none"
             d="m 2006.1,3474.72 -6.3,-19 L 0,4191.31 v 21.31 l 2006.1,-737.9" /><path
             id="path104"
             style="fill:#05050a;fill-opacity:1;fill-rule:nonzero;stroke:none"
             d="M 1939.2,3273.42 0,4001.22 v 190.09 l 1999.8,-735.59 -60.6,-182.3" /><path
             id="path106"
             style="fill:#012d33;fill-opacity:1;fill-rule:nonzero;stroke:none"
             d="m 2003.88,3468.02 2.22,6.7 26.39,79.4 v 0 l -28.61,-86.1" /><path
             id="path108"
             style="fill:#3a3b3e;fill-opacity:1;fill-rule:nonzero;stroke:none"
             d="m 2032.49,3554.12 v 0 l 2.03,6.1 -2.03,-6.1" /><path
             id="path110"
             style="fill:#05050a;fill-opacity:1;fill-rule:nonzero;stroke:none"
             d="M 2006.1,3474.72 0,4212.62 v 165.1 l 2055,-755.9 -20.48,-61.6 -2.03,-6.1 -26.39,-79.4" /><path
             id="path112"
             style="fill:#3a3b3e;fill-opacity:1;fill-rule:nonzero;stroke:none"
             d="m 2056.98,3627.78 4.32,13.03 4.2,12.61 -8.52,-25.64" /><path
             id="path114"
             style="fill:#05050a;fill-opacity:1;fill-rule:nonzero;stroke:none"
             d="M 2061.3,3640.81 0,4399.02 v 49.1 l 2065.5,-794.7 -4.2,-12.61" /><path
             id="path116"
             style="fill:#0c0d14;fill-opacity:1;fill-rule:nonzero;stroke:none"
             d="M 2055,3621.82 0,4377.72 v 21.3 l 2061.3,-758.21 -4.32,-13.03 -1.98,-5.96" /><path
             id="path118"
             style="fill:#0c0d14;fill-opacity:1;fill-rule:nonzero;stroke:none"
             d="M 1999.8,3455.72 0,4191.31 v 21.31 l 2006.1,-737.9 -2.22,-6.7 -4.09,-12.3" /><path
             id="path120"
             style="fill:#14182c;fill-opacity:1;fill-rule:nonzero;stroke:none"
             d="m 8196.4,3183.32 -136.79,262.45 -77.41,148.55 2017.8,867.9 v -494.6 l -1803.6,-784.3" /></g></g></g></g></svg>